<svg xmlns="http://www.w3.org/2000/svg" width="90" height="90" viewBox="0 0 90 90"><defs><style>.a,.b{fill:#2bdf9d;}.b{stroke:#f7f7f7;stroke-width:2px;}.c{fill:#f7f7f7;}.d{stroke:none;}.e{fill:none;}</style></defs><circle class="a" cx="45" cy="45" r="45"/><g class="b" transform="translate(7 7)"><circle class="d" cx="38" cy="38" r="38"/><circle class="e" cx="38" cy="38" r="37"/></g><path class="c" d="M35.055,6H6.562A3.557,3.557,0,0,0,3.018,9.562L3,30.932a3.572,3.572,0,0,0,3.562,3.562H35.055a3.572,3.572,0,0,0,3.562-3.562V9.562A3.572,3.572,0,0,0,35.055,6Zm-8.9,24.932H6.562V23.808H26.151Zm0-8.9H6.562V14.9H26.151Zm8.9,8.9H27.932V14.9h7.123Z" transform="translate(24.191 24.753)"/></svg>